<svg width="512" height="512" viewBox="0 0 512 512" fill="none" xmlns="http://www.w3.org/2000/svg">
<mask id="mask0_231_277" style="mask-type:alpha" maskUnits="userSpaceOnUse" x="0" y="0" width="512" height="512">
<rect width="512" height="512" fill="#EE2455"/>
</mask>
<g mask="url(#mask0_231_277)">
</g>
<rect width="512" height="512" fill="#EE2455"/>
<path d="M94.9 433.3C92.2 433.3 90.15 433.1 88.75 432.7C87.35 432.3 86.65 431.6 86.65 430.6C86.65 430.1 86.75 429.6 86.95 429.1C87.25 428.5 87.6 427.9 88 427.3L110.95 393.1L89.5 360.4C89.1 359.7 88.75 359.05 88.45 358.45C88.25 357.85 88.15 357.35 88.15 356.95C88.15 355.95 88.8 355.25 90.1 354.85C91.5 354.45 93.65 354.25 96.55 354.25H100.15C102.15 354.25 103.85 354.4 105.25 354.7C106.65 354.9 107.7 355.65 108.4 356.95L122.05 379.15L135.7 356.8C136.4 355.6 137.45 354.9 138.85 354.7C140.35 354.4 142.1 354.25 144.1 354.25H147.1C150 354.25 152.1 354.45 153.4 354.85C154.7 355.25 155.35 355.95 155.35 356.95C155.35 357.35 155.2 357.85 154.9 358.45C154.7 358.95 154.4 359.55 154 360.25L132.1 392.95L154.75 427.15C155.15 427.85 155.5 428.5 155.8 429.1C156.1 429.7 156.25 430.2 156.25 430.6C156.25 431.4 155.55 432.05 154.15 432.55C152.85 433.05 150.7 433.3 147.7 433.3H144.1C142.1 433.3 140.4 433.15 139 432.85C137.6 432.55 136.55 431.8 135.85 430.6L121.15 407.05L106.3 430.75C105.6 431.85 104.5 432.55 103 432.85C101.6 433.15 99.95 433.3 98.05 433.3H94.9Z" fill="white"/>
<path d="M181.803 434.05C174.003 434.05 168.153 432.05 164.253 428.05C160.353 423.95 158.403 418.6 158.403 412C158.403 408.2 159.003 404.65 160.203 401.35C161.503 397.95 163.753 395 166.953 392.5C170.153 389.9 174.703 387.9 180.603 386.5C186.603 385 194.303 384.25 203.703 384.25V378.85C203.703 376.75 203.253 374.95 202.353 373.45C201.553 371.95 200.153 370.8 198.153 370C196.253 369.1 193.703 368.65 190.503 368.65C186.603 368.65 183.103 369.1 180.003 370C177.003 370.8 174.453 371.65 172.353 372.55C170.353 373.35 168.903 373.75 168.003 373.75C167.403 373.75 166.803 373.35 166.203 372.55C165.603 371.75 165.053 370.8 164.553 369.7C164.053 368.5 163.653 367.35 163.353 366.25C163.053 365.05 162.903 364.1 162.903 363.4C162.903 362.2 163.753 361.05 165.453 359.95C167.153 358.75 169.403 357.65 172.203 356.65C175.003 355.65 178.103 354.9 181.503 354.4C185.003 353.8 188.453 353.5 191.853 353.5C197.253 353.5 201.903 354.1 205.803 355.3C209.703 356.4 212.903 358.05 215.403 360.25C217.903 362.45 219.753 365.05 220.953 368.05C222.153 371.05 222.753 374.35 222.753 377.95V407.95C222.753 412.75 222.853 416.5 223.053 419.2C223.353 421.9 223.653 423.95 223.953 425.35C224.253 426.75 224.403 427.9 224.403 428.8C224.403 429.6 223.853 430.3 222.753 430.9C221.653 431.4 220.303 431.85 218.703 432.25C217.203 432.55 215.653 432.8 214.053 433C212.553 433.1 211.353 433.15 210.453 433.15C209.053 433.15 208.003 432.65 207.303 431.65C206.703 430.65 206.203 429.35 205.803 427.75C205.503 426.15 205.203 424.5 204.903 422.8C204.003 423.9 202.553 425.35 200.553 427.15C198.653 428.95 196.103 430.55 192.903 431.95C189.803 433.35 186.103 434.05 181.803 434.05ZM186.903 418.9C189.403 418.9 191.703 418.45 193.803 417.55C195.903 416.65 197.803 415.45 199.503 413.95C201.203 412.45 202.603 410.8 203.703 409V397.6C198.803 397.6 194.703 397.85 191.403 398.35C188.103 398.85 185.403 399.6 183.303 400.6C181.303 401.6 179.853 402.95 178.953 404.65C178.053 406.25 177.603 408.1 177.603 410.2C177.603 412.9 178.353 415.05 179.853 416.65C181.453 418.15 183.803 418.9 186.903 418.9Z" fill="white"/>
<path d="M246.891 433.3C244.091 433.3 242.041 432.95 240.741 432.25C239.541 431.45 238.941 430.35 238.941 428.95V379.45C238.941 375.15 238.791 371.7 238.491 369.1C238.291 366.4 238.041 364.3 237.741 362.8C237.541 361.3 237.441 360.1 237.441 359.2C237.441 358.3 237.991 357.55 239.091 356.95C240.291 356.35 241.691 355.9 243.291 355.6C244.991 355.3 246.591 355.1 248.091 355C249.691 354.8 250.891 354.7 251.691 354.7C252.791 354.7 253.641 355 254.241 355.6C254.841 356.2 255.341 357.3 255.741 358.9C256.241 360.5 256.741 362.85 257.241 365.95C258.341 363.35 259.791 361.15 261.591 359.35C263.391 357.45 265.391 356 267.591 355C269.791 354 272.041 353.5 274.341 353.5C276.841 353.5 278.491 354 279.291 355C280.191 356 280.641 357.5 280.641 359.5C280.641 360.4 280.541 361.6 280.341 363.1C280.241 364.6 279.991 366.15 279.591 367.75C279.191 369.25 278.691 370.55 278.091 371.65C277.591 372.75 276.891 373.3 275.991 373.3C275.191 373.3 274.291 373.05 273.291 372.55C272.291 372.05 270.841 371.8 268.941 371.8C266.541 371.8 264.341 372.4 262.341 373.6C260.441 374.8 258.991 376.45 257.991 378.55V428.95C257.991 430.35 257.341 431.45 256.041 432.25C254.841 432.95 252.791 433.3 249.891 433.3H246.891Z" fill="white"/>
<path d="M316.443 434.05C304.743 434.05 295.843 430.6 289.743 423.7C283.643 416.8 280.593 406.85 280.593 393.85C280.593 380.75 283.643 370.75 289.743 363.85C295.843 356.95 304.743 353.5 316.443 353.5C328.043 353.5 336.843 356.95 342.843 363.85C348.843 370.75 351.843 380.75 351.843 393.85C351.843 406.85 348.843 416.8 342.843 423.7C336.943 430.6 328.143 434.05 316.443 434.05ZM316.293 418.9C321.893 418.9 325.993 416.8 328.593 412.6C331.193 408.4 332.493 402.1 332.493 393.7C332.493 385.4 331.193 379.15 328.593 374.95C325.993 370.75 321.893 368.65 316.293 368.65C310.693 368.65 306.543 370.75 303.843 374.95C301.243 379.05 299.943 385.35 299.943 393.85C299.943 402.15 301.243 408.4 303.843 412.6C306.543 416.8 310.693 418.9 316.293 418.9Z" fill="white"/>
<path d="M371.243 464.05C368.443 464.05 366.393 463.65 365.093 462.85C363.893 462.05 363.293 461 363.293 459.7V379.45C363.293 375.15 363.143 371.7 362.843 369.1C362.643 366.4 362.393 364.3 362.093 362.8C361.893 361.3 361.793 360.1 361.793 359.2C361.793 358.3 362.343 357.55 363.443 356.95C364.643 356.35 366.043 355.9 367.643 355.6C369.343 355.3 370.943 355.1 372.443 355C374.043 354.8 375.243 354.7 376.043 354.7C377.143 354.7 377.943 355 378.443 355.6C379.043 356.1 379.543 357.05 379.943 358.45C380.443 359.75 380.943 361.7 381.443 364.3C383.043 362.1 384.943 360.2 387.143 358.6C389.343 357 391.793 355.75 394.493 354.85C397.193 353.95 400.043 353.5 403.043 353.5C408.843 353.5 413.893 355.05 418.193 358.15C422.493 361.15 425.843 365.65 428.243 371.65C430.643 377.65 431.843 385 431.843 393.7C431.843 401.7 430.643 408.75 428.243 414.85C425.843 420.85 422.293 425.55 417.593 428.95C412.993 432.35 407.393 434.05 400.793 434.05C398.193 434.05 395.743 433.75 393.443 433.15C391.243 432.65 389.193 431.95 387.293 431.05C385.493 430.05 383.893 429 382.493 427.9V459.7C382.493 461 381.843 462.05 380.543 462.85C379.343 463.65 377.343 464.05 374.543 464.05H371.243ZM396.743 418.9C401.943 418.9 405.843 416.75 408.443 412.45C411.143 408.05 412.493 401.8 412.493 393.7C412.493 385.5 411.193 379.35 408.593 375.25C405.993 371.15 402.243 369.1 397.343 369.1C394.243 369.1 391.443 369.95 388.943 371.65C386.443 373.35 384.293 375.5 382.493 378.1V413.35C384.393 415.05 386.543 416.4 388.943 417.4C391.343 418.4 393.943 418.9 396.743 418.9Z" fill="white"/>
</svg>
